<?xml version="1.0" encoding="UTF-8"?>
<!DOCTYPE svg PUBLIC "-//W3C//DTD SVG 1.1//EN" "http://www.w3.org/Graphics/SVG/1.1/DTD/svg11.dtd">
<!-- Creator: CorelDRAW 2020 (64-Bit) -->
<svg xmlns="http://www.w3.org/2000/svg" xml:space="preserve" width="0.9126mm" height="1.3548mm" version="1.1" style="shape-rendering:geometricPrecision; text-rendering:geometricPrecision; image-rendering:optimizeQuality; fill-rule:evenodd; clip-rule:evenodd"
viewBox="0 0 0.6 0.89"
 xmlns:xlink="http://www.w3.org/1999/xlink"
 xmlns:xodm="http://www.corel.com/coreldraw/odm/2003">
 <defs>
  <style type="text/css">
   <![CDATA[
    .fil2 {fill:#434242}
    .fil3 {fill:#FFC000}
    .fil0 {fill:#434242;fill-rule:nonzero}
    .fil1 {fill:#FFC000;fill-rule:nonzero}
   ]]>
  </style>
 </defs>
 <g id="Layer_x0020_1">
  <metadata id="CorelCorpID_0Corel-Layer"/>
  <g id="_3124526986896">
   <path class="fil0" d="M0.28 0.89l-0.27 -0.12c-0,-0 -0.01,-0 -0.01,-0.01l0 -0.41c0,-0.01 0.01,-0.01 0.01,-0.01l0.27 0.12c0,0 0.01,0 0.01,0.01l0 0.41c0,0.01 -0.01,0.01 -0.01,0.01z"/>
   <path class="fil0" d="M0.29 0.45l-0.22 -0.14c-0,-0 -0.01,0 -0.01,0l0 0.04c0,0 0,0 0,0l0.22 0.1z"/>
   <path class="fil0" d="M0.29 0.43l-0.16 -0.15c-0,-0 -0.01,-0 -0.01,0l0 0.04c0,0 0,0 0,0l0.16 0.11z"/>
   <path class="fil1" d="M0.33 0.89l0.27 -0.12c0,-0 0.01,-0 0.01,-0.01l0 -0.41c0,-0.01 -0.01,-0.01 -0.01,-0.01l-0.27 0.12c-0,0 -0.01,0 -0.01,0.01l0 0.41c0,0.01 0.01,0.01 0.01,0.01z"/>
   <path class="fil1" d="M0.31 0.45l0.22 -0.14c0,-0 0.01,0 0.01,0l0 0.04c0,0 -0,0 -0,0l-0.22 0.1z"/>
   <path class="fil1" d="M0.31 0.43l0.16 -0.15c0,-0 0.01,-0 0.01,0l0 0.04c0,0 -0,0 -0,0l-0.16 0.11z"/>
   <path class="fil2" d="M0.29 0.14c0.01,-0.02 0,-0.11 0,-0.14 -0,-0.01 0,-0 -0.01,-0 -0.01,0 -0.05,0.03 -0.06,0.03l-0 0.07c-0.01,0.01 -0.05,0.03 -0.06,0.03l-0 -0.07c-0.01,0 -0.04,0.02 -0.05,0.03l-0 0.07 -0.06 0.03 -0 -0.07c-0.01,0 -0.04,0.02 -0.05,0.03l-0 0.14c0.01,-0 0.18,-0.1 0.21,-0.12 0.02,-0.01 0.05,-0.03 0.07,-0.04z"/>
   <path class="fil3" d="M0.29 0.14c0.02,0 0.27,0.16 0.29,0.16l-0 -0.14c-0.01,-0.01 -0.04,-0.03 -0.05,-0.03l-0 0.07 -0.06 -0.03 -0 -0.07c-0.01,-0.01 -0.04,-0.02 -0.05,-0.03l0 0.07c-0.01,-0 -0.05,-0.02 -0.06,-0.03l-0 -0.07c-0.01,-0.01 -0.02,-0.01 -0.03,-0.02 -0.01,-0 -0.03,-0.02 -0.04,-0.01 0.01,0 0,-0 0.01,0 -0,0.03 0.01,0.12 -0,0.14z"/>
  </g>
 </g>
</svg>
